<svg id="Layer_1" data-name="Layer 1" xmlns="http://www.w3.org/2000/svg" viewBox="0 0 384.81 79.31"><defs><style>.cls-1{fill:#fff;}</style></defs><path class="cls-1" d="M-65.25,184H59.81c24,0,13.06-25.26,0-23.58,0,0,.42-25.27-26.52-19.37,0,0-2.95-26.53-31.16-25.68S-29,145.27-26.51,149.7c0,0-24.84-8.62-29.89,15.8,0,0-13.06-.42-15.16,5.47S-71.14,184-65.25,184Z" transform="translate(72.3 -115.37)"/><path class="cls-1" d="M308.41,194.68H235.74c-13.95,0-7.59-14.68,0-13.7,0,0-.25-14.68,15.42-11.26,0,0,1.71-15.42,18.11-14.93s18.11,17.36,16.64,19.94c0,0,14.44-5,17.37,9.18,0,0,7.59-.24,8.81,3.18S311.84,194.68,308.41,194.68Z" transform="translate(72.3 -115.37)"/></svg>