<svg id="Layer_1" data-name="Layer 1" xmlns="http://www.w3.org/2000/svg" viewBox="0 0 135.19 20.3"><defs><style>.cls-1{fill:#733a26;}.cls-2{fill:#602e1b;}</style></defs><path class="cls-1" d="M148.15,187.7v5.49s-11.3-7.31-21.85,0C126.3,193.19,133,181.44,148.15,187.7Z" transform="translate(-126.3 -172.89)"/><path class="cls-2" d="M148.15,187.7v5.49s11.29-7.31,21.83,0C170,193.19,163.3,181.44,148.15,187.7Z" transform="translate(-126.3 -172.89)"/><path class="cls-1" d="M239.65,174.73v5.49s-11.3-7.31-21.84,0C217.81,180.22,224.5,168.46,239.65,174.73Z" transform="translate(-126.3 -172.89)"/><path class="cls-2" d="M239.65,174.73v5.49s11.3-7.31,21.84,0C261.49,180.22,254.79,168.46,239.65,174.73Z" transform="translate(-126.3 -172.89)"/></svg>