<svg id="Layer_1" data-name="Layer 1" xmlns="http://www.w3.org/2000/svg" viewBox="0 0 95.78 34.12"><defs><style>.cls-1{fill:#733a26;}.cls-2{fill:#602e1b;}</style></defs><path class="cls-1" d="M86.91,140.13v4.26s-8.77-5.68-17,0C69.95,144.39,75.15,135.26,86.91,140.13Z" transform="translate(-8.09 -138.7)"/><path class="cls-2" d="M86.91,140.13v4.26s8.77-5.68,17,0C103.87,144.39,98.67,135.26,86.91,140.13Z" transform="translate(-8.09 -138.7)"/><path class="cls-1" d="M25.05,168.56v4.26s-8.77-5.68-17,0C8.09,172.82,13.29,163.7,25.05,168.56Z" transform="translate(-8.09 -138.7)"/><path class="cls-2" d="M25.05,168.56v4.26s8.77-5.68,17,0C42,172.82,36.81,163.7,25.05,168.56Z" transform="translate(-8.09 -138.7)"/></svg>