<svg id="Layer_1" data-name="Layer 1" xmlns="http://www.w3.org/2000/svg" viewBox="0 0 467.54 516.69"><defs><style>.cls-1{fill:#718f91;}.cls-2{fill:#a1bf3b;}.cls-3{fill:#7f816f;}.cls-4{fill:#6d7360;}.cls-5{fill:#e3e9ec;}.cls-6{fill:#fff;}.cls-7{fill:#6fa980;}.cls-8{fill:#aa6c3e;}.cls-9{fill:#925d34;}.cls-10{fill:#60883b;}.cls-11{fill:#6c993f;}.cls-12{fill:#89a53d;}.cls-13{opacity:0.3;}.cls-14{opacity:0;}.cls-15{opacity:0.05;}.cls-16{opacity:0.1;}.cls-17{opacity:0.14;}.cls-18{opacity:0.19;}.cls-19{opacity:0.24;}.cls-20{opacity:0.29;}.cls-21{opacity:0.33;}.cls-22{opacity:0.38;}.cls-23{opacity:0.43;}.cls-24{opacity:0.48;}.cls-25{opacity:0.52;}.cls-26{opacity:0.57;}.cls-27{opacity:0.62;}.cls-28{opacity:0.67;}.cls-29{opacity:0.71;}.cls-30{opacity:0.76;}.cls-31{opacity:0.81;}.cls-32{opacity:0.86;}.cls-33{opacity:0.9;}.cls-34{opacity:0.95;}.cls-35{fill:#046937;opacity:0.6;}</style></defs><path class="cls-1" d="M370.24,349l-83.4-92.87a21.09,21.09,0,0,0-2.07-2,24.78,24.78,0,0,0-4.92-3.22,35.36,35.36,0,0,0-30,0,24.79,24.79,0,0,0-4.92,3.22,20.85,20.85,0,0,0-2.07,2L221.43,280,44.08,477.44c-11.08,12.34,1.4,28.51,22,28.51H370.24Z" transform="translate(97.22 -160.08)"/><path class="cls-1" d="M198.3,468.35-.44,247.06a21.28,21.28,0,0,0-2.07-2,24.68,24.68,0,0,0-4.92-3.21,34,34,0,0,0-15-3.35,33.94,33.94,0,0,0-15,3.35,24.7,24.7,0,0,0-4.92,3.21,21.3,21.3,0,0,0-2.07,2l-21.39,23.81-31.45,35v191H176.28C196.9,496.86,209.38,480.7,198.3,468.35Z" transform="translate(97.22 -160.08)"/><rect class="cls-2" x="47.41" y="280.93" width="372.59" height="235.75"/><path class="cls-3" d="M131.4,223.38a12,12,0,0,1-16-2.91c-3.28-4.68-3.26-11.86-8.23-14.67-4.42-2.51-9.92.15-14.08,3.07s-8.85,6.33-13.82,5.24a6.38,6.38,0,0,1-1.93-.75l-165.36,212c-11.11,14.24,1.4,32.9,22.06,32.9h199.2V221.88A13.36,13.36,0,0,1,131.4,223.38Z" transform="translate(97.22 -160.08)"/><path class="cls-4" d="M354.45,425.35,155.25,170,186,209.4a4.9,4.9,0,0,1-1.91.3c-2.7-.15-5-2.56-7.71-2.25-4.28.5-4.72,6.48-7,10.11a9,9,0,0,1-12.21,2.38c-3.44-2.43-5.07-7.31-9.11-8.49-3.45-1-7,1.26-9.42,3.95-1.87,2.1-3.4,4.55-5.4,6.49V458.25h199.2C353.05,458.25,365.56,439.59,354.45,425.35Z" transform="translate(97.22 -160.08)"/><path class="cls-5" d="M138.59,215.39c2.39-2.69,6-5,9.42-3.95,4,1.18,5.68,6.07,9.11,8.49a9,9,0,0,0,12.21-2.38c2.33-3.63,2.77-9.6,7-10.11,2.69-.32,5,2.09,7.71,2.25a4.9,4.9,0,0,0,1.91-.3L155.25,170a23.44,23.44,0,0,0-4.43-4.33,26.46,26.46,0,0,0-5.36-3.09,29.18,29.18,0,0,0-2.93-1.08,31.74,31.74,0,0,0-9.34-1.39v61.8C135.19,219.94,136.73,217.5,138.59,215.39Z" transform="translate(97.22 -160.08)"/><path class="cls-6" d="M93,208.87c4.16-2.92,9.66-5.57,14.08-3.07,5,2.82,5,10,8.23,14.67a12,12,0,0,0,16,2.91,13.36,13.36,0,0,0,1.79-1.5v-61.8a31.73,31.73,0,0,0-9.34,1.39,29.4,29.4,0,0,0-2.93,1.08,26.44,26.44,0,0,0-5.36,3.09,23.4,23.4,0,0,0-4.43,4.33L77.29,213.35a6.38,6.38,0,0,0,1.93.75C84.19,215.2,88.88,211.78,93,208.87Z" transform="translate(97.22 -160.08)"/><path class="cls-7" d="M370.31,446.61l-34.94-17.39s-111.74-9.39-113-9.14-56.87-5.48-56.87-5.48l-159.76-6L-55,427.3V484l425.27-14Z" transform="translate(97.22 -160.08)"/><path class="cls-7" d="M-5.73,436.76l-19.33-33.47H-20a5.33,5.33,0,0,0,4.62-8l-17.88-31h4.95a3.71,3.71,0,0,0,3.21-5.56l-19-32.9A3.67,3.67,0,0,0-47.28,324a3.68,3.68,0,0,0-3.21,1.86l-19,32.9a3.71,3.71,0,0,0,3.21,5.56h4.95l-17.88,31a5.33,5.33,0,0,0,4.62,8h5.09l-19.33,33.47a6.94,6.94,0,0,0,6,10.41H-55v17.15h15.42V447.17h27.83A6.94,6.94,0,0,0-5.73,436.76Z" transform="translate(97.22 -160.08)"/><path class="cls-7" d="M60.12,406.51,40.79,373h5.08a5.33,5.33,0,0,0,4.62-8l-17.88-31h4.95a3.71,3.71,0,0,0,3.21-5.56l-19-32.9a3.71,3.71,0,0,0-6.42,0l-19,32.9a3.71,3.71,0,0,0,3.21,5.56H4.52l-17.88,31a5.33,5.33,0,0,0,4.62,8h5.09L-23,406.51a6.94,6.94,0,0,0,6,10.41H10.86v17.15H26.28V416.91H54.11A6.94,6.94,0,0,0,60.12,406.51Z" transform="translate(97.22 -160.08)"/><path class="cls-7" d="M137.47,430.61l-19.33-33.47h5.09a5.33,5.33,0,0,0,4.62-8l-17.88-31h4.95a3.71,3.71,0,0,0,3.21-5.56l-19-32.9a3.71,3.71,0,0,0-6.42,0l-19,32.9a3.71,3.71,0,0,0,3.21,5.56h4.95L64,389.14a5.33,5.33,0,0,0,4.62,8h5.09L54.37,430.61a6.94,6.94,0,0,0,6,10.41H88.21v17.15h15.42V441h27.83A6.94,6.94,0,0,0,137.47,430.61Z" transform="translate(97.22 -160.08)"/><path class="cls-7" d="M169.63,377.28l-17-29.36h4.46a4.68,4.68,0,0,0,4.05-7l-15.68-27.17h4.34a3.25,3.25,0,0,0,2.82-4.88L136,280a3.25,3.25,0,0,0-5.63,0l-16.66,28.86a3.25,3.25,0,0,0,2.82,4.88h4.34L105.18,340.9a4.68,4.68,0,0,0,4,7h4.46L96.74,377.28A6.09,6.09,0,0,0,102,386.4h24.41v15H140v-15h24.41A6.08,6.08,0,0,0,169.63,377.28Z" transform="translate(97.22 -160.08)"/><path class="cls-7" d="M208.91,405,192,375.69h4.46a4.68,4.68,0,0,0,4.05-7L184.78,341.5h4.34a3.25,3.25,0,0,0,2.82-4.88l-16.66-28.85a3.25,3.25,0,0,0-5.63,0L153,336.62a3.25,3.25,0,0,0,2.82,4.88h4.34l-15.69,27.17a4.68,4.68,0,0,0,4.05,7H153L136,405a6.09,6.09,0,0,0,5.27,9.13h24.41v15h13.52v-15h24.41A6.09,6.09,0,0,0,208.91,405Z" transform="translate(97.22 -160.08)"/><path class="cls-7" d="M305.12,432.82l-14.69-25.44h3.87a4.05,4.05,0,0,0,3.51-6.08l-13.59-23.54H288a2.82,2.82,0,0,0,2.44-4.23l-14.44-25a2.82,2.82,0,0,0-4.88,0l-14.44,25a2.82,2.82,0,0,0,2.44,4.23h3.76L249.27,401.3a4.05,4.05,0,0,0,3.51,6.08h3.87L242,432.82a5.28,5.28,0,0,0,4.57,7.91h21.16v13H279.4v-13h21.15A5.28,5.28,0,0,0,305.12,432.82Z" transform="translate(97.22 -160.08)"/><path class="cls-7" d="M359.45,424.75,341.13,393H346a5.05,5.05,0,0,0,4.38-7.58l-17-29.37h4.69a3.52,3.52,0,0,0,3-5.27l-18-31.19a3.52,3.52,0,0,0-6.09,0l-18,31.19a3.52,3.52,0,0,0,3,5.27h4.69l-17,29.37a5.05,5.05,0,0,0,4.38,7.58H299l-18.32,31.73a6.58,6.58,0,0,0,5.7,9.87h26.38v16.26h14.62V434.61h26.39A6.58,6.58,0,0,0,359.45,424.75Z" transform="translate(97.22 -160.08)"/><path class="cls-8" d="M-86.46,446.63V464h4.12v-16.5A10.7,10.7,0,0,1-86.46,446.63Z" transform="translate(97.22 -160.08)"/><path class="cls-9" d="M-82.34,464h4.13V446.63a10.71,10.71,0,0,1-4.13.84Z" transform="translate(97.22 -160.08)"/><path class="cls-10" d="M-82.34,375.73v71.74a10.71,10.71,0,0,0,4.13-.84C-72,444-67.45,435.77-67.45,426-67.45,414.07-74.11,375.73-82.34,375.73Z" transform="translate(97.22 -160.08)"/><path class="cls-11" d="M-82.34,375.73c-8.22,0-14.89,38.34-14.89,50.22,0,9.82,4.55,18.09,10.76,20.68a10.7,10.7,0,0,0,4.12.84Z" transform="translate(97.22 -160.08)"/><rect class="cls-8" x="301.24" y="282.79" width="11.44" height="25.45"/><rect class="cls-9" x="312.68" y="282.79" width="11.44" height="25.45"/><path class="cls-10" d="M277.11,427.42l-28.68-49.67H256a7.91,7.91,0,0,0,6.85-11.87l-26.54-46h7.34a5.5,5.5,0,0,0,4.77-8.25l-28.19-48.82a5.45,5.45,0,0,0-4.76-2.75V442.87H268.2A10.3,10.3,0,0,0,277.11,427.42Z" transform="translate(97.22 -160.08)"/><path class="cls-11" d="M215.45,260.1a5.45,5.45,0,0,0-4.77,2.75L182.5,311.67a5.5,5.5,0,0,0,4.77,8.25h7.34l-26.54,46a7.91,7.91,0,0,0,6.85,11.87h7.55L153.8,427.42a10.3,10.3,0,0,0,8.92,15.45h52.74Z" transform="translate(97.22 -160.08)"/><rect class="cls-8" x="145.13" y="281.02" width="11.39" height="25.33"/><rect class="cls-9" x="156.52" y="281.02" width="11.38" height="25.33"/><path class="cls-10" d="M120.66,425.74,92.12,376.3h7.51a7.87,7.87,0,0,0,6.82-11.81L80,318.75h7.31a5.48,5.48,0,0,0,4.74-8.21L64,261.95a5.42,5.42,0,0,0-4.74-2.74v181.9h52.49A10.25,10.25,0,0,0,120.66,425.74Z" transform="translate(97.22 -160.08)"/><path class="cls-11" d="M59.3,259.21a5.43,5.43,0,0,0-4.74,2.74l-28,48.58a5.48,5.48,0,0,0,4.74,8.21h7.31L12.14,364.49A7.87,7.87,0,0,0,19,376.3h7.51L-2.07,425.74a10.25,10.25,0,0,0,8.88,15.37H59.3Z" transform="translate(97.22 -160.08)"/><rect class="cls-8" x="69.03" y="287.35" width="8.54" height="19"/><rect class="cls-9" x="77.57" y="287.35" width="8.54" height="19"/><path class="cls-10" d="M26.37,435.91,5,398.84h5.63A5.91,5.91,0,0,0,15.71,390L-4.1,355.67H1.38a4.11,4.11,0,0,0,3.56-6.16l-21-36.44A4.07,4.07,0,0,0-19.66,311V447.44H19.71A7.68,7.68,0,0,0,26.37,435.91Z" transform="translate(97.22 -160.08)"/><path class="cls-11" d="M-19.66,311a4.07,4.07,0,0,0-3.56,2.06l-21,36.44a4.11,4.11,0,0,0,3.56,6.16h5.48L-55,390a5.91,5.91,0,0,0,5.12,8.86h5.63l-21.4,37.07A7.68,7.68,0,0,0-59,447.44h39.36Z" transform="translate(97.22 -160.08)"/><ellipse class="cls-12" cx="176.14" cy="348.37" rx="19.7" ry="4.44"/><ellipse class="cls-12" cx="108.39" cy="391.78" rx="27.39" ry="6.17"/><ellipse class="cls-12" cx="24.47" cy="312.83" rx="20.64" ry="2.13"/><path class="cls-11" d="M-72.76,472.91V461.55c-4,0-7,3.49-7,5,0,0-4.5-.07-5.81,3.14,0,0-5.21-.7-5.77,3.28Z" transform="translate(97.22 -160.08)"/><path class="cls-10" d="M-72.76,472.91V461.55c4,0,7,3.49,7,5,0,0,4.5-.07,5.81,3.14,0,0,5.21-.7,5.77,3.28Z" transform="translate(97.22 -160.08)"/><ellipse class="cls-12" cx="270.18" cy="318.93" rx="166.96" ry="11.68"/><path class="cls-8" d="M74.21,488.64v19.81h4.71V489.61A12.19,12.19,0,0,1,74.21,488.64Z" transform="translate(97.22 -160.08)"/><path class="cls-9" d="M78.92,508.45h4.71V488.64a12.17,12.17,0,0,1-4.71,1Z" transform="translate(97.22 -160.08)"/><path class="cls-10" d="M78.92,407.68v81.93a12.17,12.17,0,0,0,4.71-1c7.1-3,12.29-12.4,12.29-23.61C95.92,451.45,88.31,407.68,78.92,407.68Z" transform="translate(97.22 -160.08)"/><path class="cls-11" d="M78.92,407.68c-9.39,0-17,43.78-17,57.35,0,11.21,5.19,20.66,12.29,23.61a12.19,12.19,0,0,0,4.71,1Z" transform="translate(97.22 -160.08)"/><ellipse class="cls-12" cx="260.57" cy="337.05" rx="35.27" ry="3.65"/><path class="cls-11" d="M163.35,497.14V477.72c-6.91,0-11.92,6-11.92,8.46,0,0-7.69-.12-9.92,5.36,0,0-8.91-1.2-9.86,5.6Z" transform="translate(97.22 -160.08)"/><path class="cls-10" d="M163.35,497.14V477.72c6.91,0,11.91,6,11.91,8.46,0,0,7.69-.12,9.92,5.36,0,0,8.91-1.2,9.86,5.6Z" transform="translate(97.22 -160.08)"/><g class="cls-13"><ellipse class="cls-14" cx="223.24" cy="352.39" rx="163" ry="18.96"/><ellipse class="cls-15" cx="223.51" cy="352.39" rx="160.15" ry="18.71"/><ellipse class="cls-16" cx="223.78" cy="352.39" rx="157.3" ry="18.46"/><ellipse class="cls-17" cx="224.05" cy="352.39" rx="154.45" ry="18.21"/><ellipse class="cls-18" cx="224.32" cy="352.39" rx="151.61" ry="17.96"/><ellipse class="cls-19" cx="224.58" cy="352.39" rx="148.76" ry="17.71"/><ellipse class="cls-20" cx="224.85" cy="352.39" rx="145.91" ry="17.46"/><ellipse class="cls-21" cx="225.12" cy="352.39" rx="143.06" ry="17.21"/><ellipse class="cls-22" cx="225.39" cy="352.39" rx="140.22" ry="16.96"/><ellipse class="cls-23" cx="225.66" cy="352.39" rx="137.37" ry="16.71"/><ellipse class="cls-24" cx="225.92" cy="352.39" rx="134.52" ry="16.45"/><ellipse class="cls-25" cx="226.19" cy="352.39" rx="131.67" ry="16.2"/><ellipse class="cls-26" cx="226.46" cy="352.39" rx="128.82" ry="15.95"/><ellipse class="cls-27" cx="226.73" cy="352.39" rx="125.98" ry="15.7"/><ellipse class="cls-28" cx="227" cy="352.39" rx="123.13" ry="15.45"/><ellipse class="cls-29" cx="227.26" cy="352.39" rx="120.28" ry="15.2"/><ellipse class="cls-30" cx="227.53" cy="352.39" rx="117.43" ry="14.95"/><ellipse class="cls-31" cx="227.8" cy="352.39" rx="114.59" ry="14.7"/><ellipse class="cls-32" cx="228.07" cy="352.39" rx="111.74" ry="14.45"/><ellipse class="cls-33" cx="228.34" cy="352.39" rx="108.89" ry="14.2"/><ellipse class="cls-34" cx="228.6" cy="352.39" rx="106.04" ry="13.95"/><ellipse cx="228.87" cy="352.39" rx="103.2" ry="13.7"/></g><rect class="cls-35" x="44.53" y="492.49" width="375.47" height="18.97"/><path class="cls-8" d="M250.8,534.7v20.51h4.88V535.7A12.64,12.64,0,0,1,250.8,534.7Z" transform="translate(97.22 -160.08)"/><path class="cls-9" d="M255.68,555.21h4.88V534.7a12.64,12.64,0,0,1-4.88,1Z" transform="translate(97.22 -160.08)"/><path class="cls-10" d="M255.68,450.87V535.7a12.64,12.64,0,0,0,4.88-1c7.35-3.06,12.72-12.84,12.72-24.45C273.28,496.2,265.4,450.87,255.68,450.87Z" transform="translate(97.22 -160.08)"/><path class="cls-11" d="M255.68,450.87c-9.72,0-17.6,45.33-17.6,59.38,0,11.61,5.38,21.39,12.72,24.45a12.64,12.64,0,0,0,4.88,1Z" transform="translate(97.22 -160.08)"/><ellipse class="cls-12" cx="329.33" cy="399.29" rx="40.39" ry="4.18"/><path class="cls-11" d="M232.11,559.37V537.13c-7.92,0-13.65,6.83-13.65,9.69,0,0-8.81-.14-11.36,6.14,0,0-10.2-1.37-11.29,6.41Z" transform="translate(97.22 -160.08)"/><path class="cls-10" d="M232.11,559.37V537.13c7.92,0,13.65,6.83,13.65,9.69,0,0,8.81-.14,11.36,6.14,0,0,10.2-1.37,11.29,6.41Z" transform="translate(97.22 -160.08)"/><rect class="cls-8" x="101.79" y="378.09" width="6.6" height="14.69"/><rect class="cls-9" x="108.39" y="378.09" width="6.6" height="14.69"/><path class="cls-10" d="M46.76,529.26,30.2,500.59h4.36a4.57,4.57,0,0,0,4-6.85L23.2,467.21h4.24a3.17,3.17,0,0,0,2.75-4.76L13.92,434.27a3.15,3.15,0,0,0-2.75-1.59V538.17H41.61A5.94,5.94,0,0,0,46.76,529.26Z" transform="translate(97.22 -160.08)"/><path class="cls-11" d="M11.17,432.68a3.15,3.15,0,0,0-2.75,1.59L-7.85,462.44a3.18,3.18,0,0,0,2.75,4.76H-.86l-15.32,26.53a4.57,4.57,0,0,0,4,6.85h4.36l-16.55,28.67a5.94,5.94,0,0,0,5.15,8.91H11.17Z" transform="translate(97.22 -160.08)"/><ellipse class="cls-12" cx="132.55" cy="408.23" rx="39.4" ry="4.07"/><path class="cls-11" d="M35.32,568.32V546.62c-7.72,0-13.31,6.66-13.31,9.45,0,0-8.59-.14-11.08,6,0,0-9.95-1.34-11,6.25Z" transform="translate(97.22 -160.08)"/><path class="cls-10" d="M35.32,568.32V546.62c7.72,0,13.31,6.66,13.31,9.45,0,0,8.59-.14,11.08,6,0,0,9.95-1.34,11,6.25Z" transform="translate(97.22 -160.08)"/></svg>