<svg id="Layer_1" data-name="Layer 1" xmlns="http://www.w3.org/2000/svg" viewBox="0 0 215.27 20.43"><defs><style>.cls-1{fill:#fff;}</style></defs><path class="cls-1" d="M28.17,571l1.3-.09,1.29-.1q1.47-2.25,3.15-4.46l-.08-.07-.08-.08a2.75,2.75,0,0,1,.14-1.95,1.61,1.61,0,0,1,1-.54,3.25,3.25,0,0,1,1,.11l.21-.25.22-.26a1.54,1.54,0,0,1,1.83.47,2.18,2.18,0,0,1,.41.94,5,5,0,0,1,.06.91l-.09.12-.08.11q1.24,1.1,2.4,2.29t2.22,2.4l1.38,0,1.4,0a1.89,1.89,0,0,1,1.45,1.3,1.07,1.07,0,0,1-.31,1.42q-.72.6-1,.81l.65.85.61.81a1.52,1.52,0,0,1,.64,1.21,8,8,0,0,1-.19,1.42c-.25.39-.68.43-1.3.11q-1.15-1-2.25-2.09T42,574.12q-2.9,0-5.09,0t-4.7,0a37.88,37.88,0,0,0-2.4,3.34q-.63,1.13-1.55.86t-.89-1.86q.58-1.08,1.09-2l-.36,0a1.21,1.21,0,0,1-.58-.73,1.79,1.79,0,0,1-.07-1.11,1.15,1.15,0,0,1,.12-.95A7.9,7.9,0,0,0,28.17,571Zm11.54-.09-1.55-1.64-1.55-1.65-1.23,1.72L34.15,571Q36.93,570.91,39.71,570.87Z" transform="translate(-27.37 -558.84)"/><path class="cls-1" d="M48.6,560.13a1.38,1.38,0,0,1,.45-1,.88.88,0,0,1,1-.24c.67.06,1.06.26,1.15.62a2.49,2.49,0,0,1,0,1.18,16.85,16.85,0,0,1,0,3.31,27.44,27.44,0,0,1-.56,4.67,3.69,3.69,0,0,1,2.25-.36,1.86,1.86,0,0,1,1.79,1.22c.18.73.3,1.21.36,1.45a4.53,4.53,0,0,1-.08,1.43,12.42,12.42,0,0,0-.36,2.31q-.07,1.16-.07,2.31l.47.54.48.53q-.09,1-1.3,1.15a3.09,3.09,0,0,1-1.67-1.08,2.41,2.41,0,0,1-.64-1.45,8.31,8.31,0,0,1,.36-3.68q.09-1.35-.94-1A8.35,8.35,0,0,0,50,574.31a27.65,27.65,0,0,0-1.15,3.81,2.18,2.18,0,0,1-2,.58A7.65,7.65,0,0,1,46,578a.73.73,0,0,1-.24-.72q1-4.63,1.79-9.24T48.6,560.13Z" transform="translate(-27.37 -558.84)"/><path class="cls-1" d="M55.27,573.05a13.48,13.48,0,0,1,.36-3.45,4.31,4.31,0,0,1,2.14-1.91,10.55,10.55,0,0,1,3.14-.8,10.87,10.87,0,0,1,3.38.73,9,9,0,0,1,2.43,1.47,5.89,5.89,0,0,1,1.38,2.62,5.75,5.75,0,0,1-.05,2.46,13.52,13.52,0,0,1-2.91,2.68,10.11,10.11,0,0,1-3,1.36,4.52,4.52,0,0,1-2.56.41,5.4,5.4,0,0,1-1.94-.78,4.09,4.09,0,0,1-1.68-2.16A25.27,25.27,0,0,1,55.27,573.05Zm2.3-.44a2.52,2.52,0,0,0,.67,2.47,2.86,2.86,0,0,0,2.73.11,17.32,17.32,0,0,0,3.75-2.11,2.66,2.66,0,0,0,.55-.51,4.51,4.51,0,0,1,.54-.54,2.1,2.1,0,0,0-1-1.47,3.84,3.84,0,0,0-4.37-.84A4.24,4.24,0,0,0,57.57,572.62Z" transform="translate(-27.37 -558.84)"/><path class="cls-1" d="M68.87,568.86a2.19,2.19,0,0,1,.13-.33c0-.09.09-.21.14-.35a2,2,0,0,1,2,.64,4.59,4.59,0,0,1,.22.43,2.31,2.31,0,0,1,0,1,6.23,6.23,0,0,1,.79-.62,6,6,0,0,0,.79-.63,11.43,11.43,0,0,1,1.52-1.17,4.15,4.15,0,0,1,2.49-.42,3.12,3.12,0,0,1,1,.05,1.21,1.21,0,0,1,.77.68,1.57,1.57,0,0,1,.1,1.11,6.84,6.84,0,0,1-1.43.43c-.47.08-.94.15-1.41.2a15.22,15.22,0,0,0-3.48,3.91A39.4,39.4,0,0,0,70,578.41l-.67.3a2,2,0,0,1-1,.06,2.24,2.24,0,0,1-.8-1.74,12.62,12.62,0,0,0,1.28-4.63c0-.59,0-1.18,0-1.77S68.87,569.45,68.87,568.86Z" transform="translate(-27.37 -558.84)"/><path class="cls-1" d="M78.19,568.86a2.19,2.19,0,0,1,.12-.33c0-.09.09-.21.15-.35a2,2,0,0,1,2,.64,4.61,4.61,0,0,1,.22.43,2.3,2.3,0,0,1,0,1,6.34,6.34,0,0,1,.78-.62,5.92,5.92,0,0,0,.8-.63,11.38,11.38,0,0,1,1.52-1.17,4.15,4.15,0,0,1,2.49-.42,3.12,3.12,0,0,1,1,.05,1.21,1.21,0,0,1,.77.68,1.57,1.57,0,0,1,.1,1.11,6.85,6.85,0,0,1-1.43.43c-.47.08-.94.15-1.41.2a15.26,15.26,0,0,0-3.48,3.91,39.68,39.68,0,0,0-2.48,4.64l-.67.3a2,2,0,0,1-1,.06,2.24,2.24,0,0,1-.8-1.74,12.62,12.62,0,0,0,1.28-4.63q0-.88,0-1.77T78.19,568.86Z" transform="translate(-27.37 -558.84)"/><path class="cls-1" d="M86.12,573.05a13.48,13.48,0,0,1,.36-3.45,4.31,4.31,0,0,1,2.14-1.91,10.54,10.54,0,0,1,3.14-.8,10.89,10.89,0,0,1,3.38.73,9,9,0,0,1,2.42,1.47,5.89,5.89,0,0,1,1.38,2.62,5.77,5.77,0,0,1-.05,2.46A13.52,13.52,0,0,1,96,576.85a10.12,10.12,0,0,1-3,1.36,4.52,4.52,0,0,1-2.56.41,5.4,5.4,0,0,1-1.94-.78,4.09,4.09,0,0,1-1.68-2.16A25.28,25.28,0,0,1,86.12,573.05Zm2.3-.44a2.52,2.52,0,0,0,.67,2.47,2.86,2.86,0,0,0,2.73.11,17.32,17.32,0,0,0,3.75-2.11,2.69,2.69,0,0,0,.55-.51,4.51,4.51,0,0,1,.54-.54,2.11,2.11,0,0,0-1-1.47,3.84,3.84,0,0,0-4.37-.84A4.24,4.24,0,0,0,88.42,572.62Z" transform="translate(-27.37 -558.84)"/><path class="cls-1" d="M118.59,561.39a5.47,5.47,0,0,1,1.29.32,6.8,6.8,0,0,1,.9.44,9.08,9.08,0,0,1,0,2.62q-.19,1.11-.48,2.54-.4,1.72-.91,3.32a16.41,16.41,0,0,1-1.23,2.91q0,.37,0,.91a1.72,1.72,0,0,0,.27,1,4.42,4.42,0,0,1,.85.68,5.16,5.16,0,0,1,.54.67q0,.53-.73.83a2.34,2.34,0,0,1-1.45-.26,9.59,9.59,0,0,1-1.08-.41,4.4,4.4,0,0,1-1.06-.64q-.73.76-1.48,1.46a6.18,6.18,0,0,1-1.7,1.13,2.55,2.55,0,0,1-1.27-.13,3.47,3.47,0,0,1-.8-.5,2.11,2.11,0,0,1-1-1c-.13-.34-.26-.69-.37-1a6.61,6.61,0,0,1-.16-2.22,14.51,14.51,0,0,1,.39-2.15,5.54,5.54,0,0,1,.85-1.27,4.87,4.87,0,0,1,1.41-1.05,4,4,0,0,1,2.18-.23,8.5,8.5,0,0,1,1.8.59q.3-1.33.62-2.69t.65-2.71A6.09,6.09,0,0,1,118.59,561.39Zm-7.39,13.88a1.19,1.19,0,0,0,.39,1.12q.88-.12,1.81-1.65t1.41-2.38q.12-.43-.57-.87a2,2,0,0,0-1.93.23,5.59,5.59,0,0,0-.76,1.77Q111.36,574.37,111.21,575.27Z" transform="translate(-27.37 -558.84)"/><path class="cls-1" d="M132.19,575.56a16.94,16.94,0,0,0-2.7,1.13,10.52,10.52,0,0,0-1.69,1.12,5.13,5.13,0,0,1-2.39.89,12.29,12.29,0,0,1-2.37,0,4.43,4.43,0,0,1-2.55-2.25,6.56,6.56,0,0,1-.46-2.28,13.84,13.84,0,0,0-.24-2.29,1.08,1.08,0,0,1,.67-.34,1.51,1.51,0,0,0,.73-.33l1.44-1.31a11,11,0,0,1,1.66-1.2,6.41,6.41,0,0,1,2.44-.73,17.66,17.66,0,0,1,1.81,0,4.54,4.54,0,0,1,2.38,1.12,2.45,2.45,0,0,1,.5,2.31,13.11,13.11,0,0,1-2.44,1.73,19.38,19.38,0,0,1-2.69,1.22,5.82,5.82,0,0,1-1.69.58,15.11,15.11,0,0,1-1.68.18.79.79,0,0,0,.3.74,1.25,1.25,0,0,0,1.06.12q1.31-.5,2.63-.9t2.63-.9q1.47-.62,1.94,0Q132.72,574.89,132.19,575.56Zm-8.69-2.77,1.26-.12q1.08-.5,2.07-1a11.23,11.23,0,0,0,1.8-1.18l-.9-.28a1.94,1.94,0,0,0-1.31.28,9.43,9.43,0,0,0-1.74,1.18C124.25,572,123.85,572.41,123.5,572.79Z" transform="translate(-27.37 -558.84)"/><path class="cls-1" d="M142.42,571.63a6.29,6.29,0,0,1,1.76-2.47,7.68,7.68,0,0,1,2.4-1.32,2.92,2.92,0,0,1,2.21.18,8.29,8.29,0,0,1,2.41,1.63,33.09,33.09,0,0,0,2.19,3.41,11.68,11.68,0,0,0,2.36,2.45,1.18,1.18,0,0,1,1.2.3,1.27,1.27,0,0,1,.08,1.41,3.39,3.39,0,0,1-1.89,0,11.93,11.93,0,0,1-2-1A18,18,0,0,1,151.3,575a12.79,12.79,0,0,1-4,3.52,8.15,8.15,0,0,1-1.41.18,2.51,2.51,0,0,1-1.37-.35,4.7,4.7,0,0,1-1.58-1.23,6,6,0,0,1-.77-1.33A9.82,9.82,0,0,1,142.42,571.63Zm4-.8a7.59,7.59,0,0,0-1.49,2.47q-.82,1.88.13,2.58a.8.8,0,0,0,1.06,0q.49-.41,1.06-1a22.14,22.14,0,0,0,1.9-3.16,1.45,1.45,0,0,0-.48-1.66A2.82,2.82,0,0,0,146.41,570.83Z" transform="translate(-27.37 -558.84)"/><path class="cls-1" d="M158.91,562q2.11-.26,2.53.15a1,1,0,0,1,.29,1.18,49.48,49.48,0,0,0-1.46,4.82q-.68,2.67-1.06,4.8a9.26,9.26,0,0,0-.06,1.39,9.88,9.88,0,0,0,.26,1.38,4,4,0,0,0,.53,1,1.47,1.47,0,0,0,.75.38c.48-.05.86-.11,1.13-.16a1.86,1.86,0,0,0,.85-.48c0-.11,0-.15.11-.11a1.64,1.64,0,0,1,.34.3,1.41,1.41,0,0,1-.45,1.3,10.17,10.17,0,0,0-1.1.74,2.38,2.38,0,0,1-1.46.24,4.38,4.38,0,0,1-3.43-1.66,6.59,6.59,0,0,1-.64-3.49,22.25,22.25,0,0,1,.32-2.85q.25-1.42.62-2.84l.81-3A19.6,19.6,0,0,1,158.91,562Z" transform="translate(-27.37 -558.84)"/><path class="cls-1" d="M167.58,562.61q.38-.22,2,.32a1.77,1.77,0,0,1,.52,1.1c-.6.88-1.13,1.71-1.61,2.49a19.15,19.15,0,0,1,2.08.55l.23.33.23.33-.32.22-.33.21-1.54.22-1.54.21-.21.39-.19.38q-.44,1.12-1,2.8T164.9,575a3.27,3.27,0,0,0-.17,1.52.39.39,0,0,0,.41.27,4.92,4.92,0,0,0,1.64-.5l1.21-.68a1.34,1.34,0,0,1,1.3,0,.78.78,0,0,1,.2,1.1,14.9,14.9,0,0,1-1.29,1,8,8,0,0,1-1.59.87,2.28,2.28,0,0,1-1.11.24,5.06,5.06,0,0,1-1.09-.17q-2.23-.7-2.68-1.87a5.66,5.66,0,0,1-.2-1.43,13.19,13.19,0,0,1,.07-1.45q.26-1.05.59-2.11a10.83,10.83,0,0,1,1-2.12,2,2,0,0,1,.11-.22c0-.08.13-.26.25-.55a1.9,1.9,0,0,1-1.48-.39,4.4,4.4,0,0,1-.29-2.23q1.83-.06,3.37-.17A27.67,27.67,0,0,1,167.58,562.61Z" transform="translate(-27.37 -558.84)"/><path class="cls-1" d="M168.75,573.05a13.4,13.4,0,0,1,.36-3.45,4.3,4.3,0,0,1,2.14-1.91,10.55,10.55,0,0,1,3.14-.8,10.87,10.87,0,0,1,3.38.73,9,9,0,0,1,2.43,1.47,5.9,5.9,0,0,1,1.38,2.62,5.78,5.78,0,0,1,0,2.46,13.5,13.5,0,0,1-2.91,2.68,10.12,10.12,0,0,1-3,1.36,4.53,4.53,0,0,1-2.56.41,5.4,5.4,0,0,1-1.94-.78,4.1,4.1,0,0,1-1.68-2.16A25.26,25.26,0,0,1,168.75,573.05Zm2.3-.44a2.52,2.52,0,0,0,.67,2.47,2.85,2.85,0,0,0,2.73.11,17.32,17.32,0,0,0,3.75-2.11,2.64,2.64,0,0,0,.55-.51,4.58,4.58,0,0,1,.54-.54,2.11,2.11,0,0,0-1-1.47,3.84,3.84,0,0,0-4.37-.84A4.24,4.24,0,0,0,171,572.62Z" transform="translate(-27.37 -558.84)"/><path class="cls-1" d="M190.86,569.34l.12-.53q.06-.27.63-.52a2.82,2.82,0,0,1,1.47-.11,3.7,3.7,0,0,1,1,.43q.47,1.26,1,3a7.9,7.9,0,0,0,1.62,2.91,15.19,15.19,0,0,0,1.76-3q.85-1.86,1.37-3.34a1.88,1.88,0,0,1,1.2-.73,4.6,4.6,0,0,1,1.34,0,2.45,2.45,0,0,1,1.09.59,2.08,2.08,0,0,1,.42.71,50.52,50.52,0,0,1-3.14,5.43,27.73,27.73,0,0,1-3.85,4.63,4.36,4.36,0,0,1-1.36-.05,1,1,0,0,1-.77-.85A44.67,44.67,0,0,1,190.86,569.34Z" transform="translate(-27.37 -558.84)"/><path class="cls-1" d="M203.48,569.11q.1-.48,1.24-1c.43-.1.72-.09.86,0l.43.34q-.43,4.51.24,6.15t1.55.56a9.7,9.7,0,0,0,1.54-3.48,11.16,11.16,0,0,0,.24-4.86,1.74,1.74,0,0,1,1.69,0A2.58,2.58,0,0,1,212.5,568a9.73,9.73,0,0,1,0,1.81,11.16,11.16,0,0,1-.38,2.3,21.19,21.19,0,0,1-1.38,4.2,3.68,3.68,0,0,1-2.52,2.29,3.2,3.2,0,0,1-3-.24,4.51,4.51,0,0,1-1.54-2.31,11.33,11.33,0,0,1-.48-3.41A25.81,25.81,0,0,1,203.48,569.11Z" transform="translate(-27.37 -558.84)"/><path class="cls-1" d="M224.54,575.56a16.89,16.89,0,0,0-2.69,1.13,10.4,10.4,0,0,0-1.69,1.12,5.14,5.14,0,0,1-2.39.89,12.3,12.3,0,0,1-2.38,0,4.43,4.43,0,0,1-2.56-2.25,6.61,6.61,0,0,1-.46-2.28,14,14,0,0,0-.23-2.29,1.06,1.06,0,0,1,.67-.34,1.5,1.5,0,0,0,.73-.33l1.45-1.31a11,11,0,0,1,1.66-1.2,6.42,6.42,0,0,1,2.44-.73,17.71,17.71,0,0,1,1.82,0,4.55,4.55,0,0,1,2.38,1.12,2.45,2.45,0,0,1,.5,2.31,13.13,13.13,0,0,1-2.44,1.73,19.4,19.4,0,0,1-2.69,1.22A5.83,5.83,0,0,1,217,575a15.15,15.15,0,0,1-1.68.18.79.79,0,0,0,.3.74,1.25,1.25,0,0,0,1.06.12q1.31-.5,2.63-.9t2.63-.9q1.47-.62,1.94,0Q225.07,574.89,224.54,575.56Zm-8.69-2.77,1.26-.12q1.08-.5,2.07-1a11.28,11.28,0,0,0,1.81-1.18l-.9-.28a1.94,1.94,0,0,0-1.31.28,9.51,9.51,0,0,0-1.74,1.18C216.6,572,216.21,572.41,215.85,572.79Z" transform="translate(-27.37 -558.84)"/><path class="cls-1" d="M227,562q2.11-.26,2.53.15a1,1,0,0,1,.29,1.18,49.48,49.48,0,0,0-1.46,4.82q-.68,2.67-1.06,4.8a9.17,9.17,0,0,0-.06,1.39,9.56,9.56,0,0,0,.26,1.38,3.89,3.89,0,0,0,.53,1,1.46,1.46,0,0,0,.75.38q.72-.08,1.13-.16a1.87,1.87,0,0,0,.85-.48c0-.11,0-.15.11-.11a1.64,1.64,0,0,1,.34.3,1.41,1.41,0,0,1-.45,1.3,10.3,10.3,0,0,0-1.1.74,2.38,2.38,0,0,1-1.46.24,4.39,4.39,0,0,1-3.43-1.66,6.62,6.62,0,0,1-.64-3.49,22.27,22.27,0,0,1,.32-2.85q.25-1.42.62-2.84l.81-3A19.39,19.39,0,0,1,227,562Z" transform="translate(-27.37 -558.84)"/><path class="cls-1" d="M229.7,573.05a13.4,13.4,0,0,1,.36-3.45,4.31,4.31,0,0,1,2.14-1.91,10.56,10.56,0,0,1,3.14-.8,10.88,10.88,0,0,1,3.38.73,9,9,0,0,1,2.43,1.47,5.89,5.89,0,0,1,1.38,2.62,5.74,5.74,0,0,1-.05,2.46,13.52,13.52,0,0,1-2.91,2.68,10.13,10.13,0,0,1-3,1.36,4.52,4.52,0,0,1-2.56.41,5.39,5.39,0,0,1-1.94-.78,4.1,4.1,0,0,1-1.68-2.16A25,25,0,0,1,229.7,573.05Zm2.3-.44a2.52,2.52,0,0,0,.67,2.47,2.86,2.86,0,0,0,2.73.11,17.34,17.34,0,0,0,3.75-2.11,2.66,2.66,0,0,0,.55-.51,4.59,4.59,0,0,1,.54-.54,2.1,2.1,0,0,0-1-1.47,3.84,3.84,0,0,0-4.37-.84A4.24,4.24,0,0,0,232,572.62Z" transform="translate(-27.37 -558.84)"/></svg>