<svg id="Layer_1" data-name="Layer 1" xmlns="http://www.w3.org/2000/svg" viewBox="0 0 252 21.39"><defs><style>.cls-1{fill:#26401c;}</style></defs><path class="cls-1" d="M10.18,63.38l-.1.06-.09,0a1.76,1.76,0,0,1-1-1.44,1.66,1.66,0,0,1,.5-1.21,8.31,8.31,0,0,1,2.58-1,13.25,13.25,0,0,1,2.6-.26,11.42,11.42,0,0,1,3.8.39q1.7.5,3.29,1.12a8,8,0,0,1,2.53,1.79A4.85,4.85,0,0,1,25.41,65a4.17,4.17,0,0,1-1.25,2.8,14.86,14.86,0,0,1-3,2.27A26.52,26.52,0,0,1,18,71.15a12.36,12.36,0,0,1-3.15.43q.11.9.2,1.8t.18,1.82q.33.63-.65,1.27l-.92.07a1.21,1.21,0,0,1-.91-.44q-.32-1-.62-2.11a15.11,15.11,0,0,1-.44-2.28Q10.85,67.75,10.18,63.38Zm4.14,5.82q1.29-.1,2.46-.26a7.28,7.28,0,0,0,2.33-.77q3.13-1.39,3.24-3.18a2.7,2.7,0,0,0-2.41-2q-2-.4-3.9-.66a11,11,0,0,0-3.51.53q.41.93.76,1.86a11.75,11.75,0,0,1,.53,1.83Q14,67.87,14.32,69.2Z" transform="translate(-9 -59.55)"/><path class="cls-1" d="M25.54,66.59a2.12,2.12,0,0,1,.12-.32c0-.09.09-.2.14-.34a2,2,0,0,1,2,.62A4.2,4.2,0,0,1,28,67a2.18,2.18,0,0,1,0,.94,5.82,5.82,0,0,1,.77-.6,5.83,5.83,0,0,0,.79-.61A11,11,0,0,1,31,65.57a4.16,4.16,0,0,1,2.46-.41,3.18,3.18,0,0,1,1,.05,1.19,1.19,0,0,1,.76.66,1.48,1.48,0,0,1,.1,1.07,6.81,6.81,0,0,1-1.42.41q-.7.12-1.39.19a14.82,14.82,0,0,0-3.44,3.77,37.68,37.68,0,0,0-2.44,4.47l-.66.29a2,2,0,0,1-1,.05,2.14,2.14,0,0,1-.79-1.67A12,12,0,0,0,25.44,70q0-.85,0-1.71T25.54,66.59Z" transform="translate(-9 -59.55)"/><path class="cls-1" d="M33.14,70.63a12.69,12.69,0,0,1,.35-3.33,4.21,4.21,0,0,1,2.11-1.84,10.68,10.68,0,0,1,3.1-.77,10.94,10.94,0,0,1,3.33.71,8.84,8.84,0,0,1,2.4,1.42,5.61,5.61,0,0,1,1.37,2.52,5.4,5.4,0,0,1-.05,2.37,13.2,13.2,0,0,1-2.87,2.58,10.11,10.11,0,0,1-3,1.31,4.56,4.56,0,0,1-2.52.39,5.38,5.38,0,0,1-1.91-.75,3.94,3.94,0,0,1-1.66-2.08A23.7,23.7,0,0,1,33.14,70.63Zm2.27-.42a2.39,2.39,0,0,0,.66,2.38,2.88,2.88,0,0,0,2.69.11,17.23,17.23,0,0,0,3.7-2,2.73,2.73,0,0,0,.54-.49,4.41,4.41,0,0,1,.53-.52,2,2,0,0,0-1-1.42,3.86,3.86,0,0,0-4.31-.81A4.13,4.13,0,0,0,35.41,70.2Z" transform="translate(-9 -59.55)"/><path class="cls-1" d="M45.34,75.24a46.57,46.57,0,0,1,2.51-4.77Q46.44,69.38,44.92,68a1.58,1.58,0,0,1-.62-1.81A1.86,1.86,0,0,1,45.82,66a10.83,10.83,0,0,1,3.44,2.24,1.57,1.57,0,0,0,.12-.19l1.22-1.39,1.21-1.4a1,1,0,0,1,1.24,0,1.19,1.19,0,0,1,1,1q-1.67,2-2.88,3.78l.49.45a20.14,20.14,0,0,0,3.15,2l.66.16.66.17c0,.12,0,.23,0,.35s0,.23.06.34a1.53,1.53,0,0,1-.46.54,1.57,1.57,0,0,1-1,.16,9.34,9.34,0,0,1-2.32-.78q-1.07-.53-2.11-1.09l-.22-.14L49.89,72l-.11.18a22.7,22.7,0,0,1-1.19,2,11.24,11.24,0,0,1-1.48,1.78,1.06,1.06,0,0,1-1.05.19Q45.12,75.9,45.34,75.24Z" transform="translate(-9 -59.55)"/><path class="cls-1" d="M56.53,65.63q1.92-.56,2.74.48a26,26,0,0,0-.63,3.68q-.18,1.84-.18,3.69l.7,0,.74,0q1.15.75,1,1.47a1.56,1.56,0,0,1-1.51,1.21,7.81,7.81,0,0,1-1.65-.47,3.67,3.67,0,0,1-2-2.15,32.89,32.89,0,0,1-.19-3.76A7.92,7.92,0,0,1,56.53,65.63Zm.61-5a1.82,1.82,0,0,1,1.65-.2,2.45,2.45,0,0,1,1.23.17,3.1,3.1,0,0,1,.82.57,2.67,2.67,0,0,1,.35,1.94,3.58,3.58,0,0,1-2.54.19,2.77,2.77,0,0,1-1.71-.74A1.87,1.87,0,0,1,57.14,60.59Z" transform="translate(-9 -59.55)"/><path class="cls-1" d="M60.34,65.9q-.4-.52.6-1.06a1,1,0,0,1,1.37,0,2.16,2.16,0,0,1,1.06.73,2.93,2.93,0,0,1,.38.85q.22.3,0,1.47t-.26,1.47a10.81,10.81,0,0,1,1.36-2,1.51,1.51,0,0,1,2.05-.57.84.84,0,0,1,.72.19l.44.46.34.77q.17.38.34.76a9.43,9.43,0,0,1,4.78-4A4.35,4.35,0,0,1,75,64.71a3.92,3.92,0,0,1,1,.21A3,3,0,0,1,77.32,68q-.34,1-.66,2.07L76,72.17c-.05.4-.1.79-.14,1.19s-.08.8-.12,1.19c.13.43-.11.76-.7,1a2.17,2.17,0,0,1-1.82-.45,1.63,1.63,0,0,1-.83-1.6q.23-1,.54-2.07a12.56,12.56,0,0,1,.83-2.06,3.37,3.37,0,0,0,0-1.81,7.89,7.89,0,0,0-1.66,1.89q-.7,1.11-1.5,2.15a5.36,5.36,0,0,1-.4,1.36,4.59,4.59,0,0,0-.38,1.33,2.16,2.16,0,0,1-.82.9,3.58,3.58,0,0,1-1,.36q-1.58-.18-1.77-1.19a10.12,10.12,0,0,1,0-1.7,15.89,15.89,0,0,0,0-1.71,6.19,6.19,0,0,0-2.07,2.34q-.42,1.07-1.06,2.33-.13.37-.93.53A1.87,1.87,0,0,1,60.94,76a2.44,2.44,0,0,1-.68-.93,2.63,2.63,0,0,1-.13-.8,14.06,14.06,0,0,0,.51-3.19q.07-1.6.24-3.21A4.36,4.36,0,0,0,60.34,65.9Z" transform="translate(-9 -59.55)"/><path class="cls-1" d="M77.17,69.25a6.08,6.08,0,0,1,1.74-2.38,7.64,7.64,0,0,1,2.37-1.27,2.93,2.93,0,0,1,2.18.17,8.21,8.21,0,0,1,2.38,1.57A31.46,31.46,0,0,0,88,70.63,11.35,11.35,0,0,0,90.31,73a1.19,1.19,0,0,1,1.18.29,1.2,1.2,0,0,1,.08,1.36,3.42,3.42,0,0,1-1.87,0,11.88,11.88,0,0,1-2-.92,17.79,17.79,0,0,1-1.8-1.19A12.51,12.51,0,0,1,82,75.92a8.1,8.1,0,0,1-1.39.18,2.53,2.53,0,0,1-1.35-.34,4.66,4.66,0,0,1-1.55-1.19A5.79,5.79,0,0,1,77,73.28,9.22,9.22,0,0,1,77.17,69.25Zm3.94-.77a7.24,7.24,0,0,0-1.48,2.38q-.81,1.81.13,2.49a.81.81,0,0,0,1,0q.48-.4,1-1a21.22,21.22,0,0,0,1.88-3,1.38,1.38,0,0,0-.48-1.6A2.83,2.83,0,0,0,81.1,68.49Z" transform="translate(-9 -59.55)"/><path class="cls-1" d="M90.45,65.9q-.4-.52.6-1.06a1,1,0,0,1,1.37,0,2.16,2.16,0,0,1,1.06.73,2.93,2.93,0,0,1,.38.85q.22.3,0,1.47t-.26,1.47a10.81,10.81,0,0,1,1.35-2A1.51,1.51,0,0,1,97,66.77a.84.84,0,0,1,.72.19l.44.46.34.77q.17.38.34.76a9.43,9.43,0,0,1,4.78-4,4.35,4.35,0,0,1,1.49-.21,3.91,3.91,0,0,1,1,.21A3,3,0,0,1,107.42,68q-.34,1-.66,2.07l-.64,2.07q-.08.59-.14,1.19t-.12,1.19c.13.43-.11.76-.7,1a2.17,2.17,0,0,1-1.82-.45,1.63,1.63,0,0,1-.83-1.6q.23-1,.54-2.07a12.58,12.58,0,0,1,.83-2.06,3.36,3.36,0,0,0,0-1.81,7.9,7.9,0,0,0-1.66,1.89q-.7,1.11-1.5,2.15a5.36,5.36,0,0,1-.4,1.36,4.59,4.59,0,0,0-.38,1.33,2.16,2.16,0,0,1-.82.9,3.58,3.58,0,0,1-1,.36q-1.58-.18-1.77-1.19a10.12,10.12,0,0,1,0-1.7,15.94,15.94,0,0,0,0-1.71,6.19,6.19,0,0,0-2.07,2.34q-.42,1.07-1.06,2.33-.13.37-.93.53A1.87,1.87,0,0,1,91,76a2.44,2.44,0,0,1-.68-.93,2.62,2.62,0,0,1-.13-.8,14.06,14.06,0,0,0,.51-3.19q.07-1.6.24-3.21A4.36,4.36,0,0,0,90.45,65.9Z" transform="translate(-9 -59.55)"/><path class="cls-1" d="M119.16,73a16.94,16.94,0,0,0-2.66,1.09,10.37,10.37,0,0,0-1.66,1.08,5.15,5.15,0,0,1-2.35.86,12.4,12.4,0,0,1-2.34,0,4.34,4.34,0,0,1-2.52-2.17,6.22,6.22,0,0,1-.45-2.2,13.12,13.12,0,0,0-.23-2.21,1.06,1.06,0,0,1,.66-.33,1.5,1.5,0,0,0,.73-.32l1.43-1.26a10.81,10.81,0,0,1,1.64-1.16,6.45,6.45,0,0,1,2.41-.7q.94,0,1.79,0a4.52,4.52,0,0,1,2.34,1.08,2.32,2.32,0,0,1,.5,2.22A12.94,12.94,0,0,1,116,70.73a19.41,19.41,0,0,1-2.65,1.17,5.85,5.85,0,0,1-1.67.56,15.21,15.21,0,0,1-1.66.18.76.76,0,0,0,.3.71,1.25,1.25,0,0,0,1.05.12q1.29-.49,2.59-.87t2.59-.87q1.45-.59,1.91,0Q119.68,72.4,119.16,73Zm-8.58-2.67,1.25-.12q1.06-.49,2-1a11.1,11.1,0,0,0,1.78-1.13l-.89-.26a2,2,0,0,0-1.29.26,9.33,9.33,0,0,0-1.72,1.13Q111.1,69.83,110.58,70.38Z" transform="translate(-9 -59.55)"/><path class="cls-1" d="M118.56,65.54q-.4-.53.6-1a1,1,0,0,1,1.37,0,2.25,2.25,0,0,1,1,.72,2.71,2.71,0,0,1,.39.86q.22.29,0,1.45c-.16.77-.25,1.26-.27,1.46a21.36,21.36,0,0,1,1.12-1.87,3.88,3.88,0,0,1,1.81-1.64,4.56,4.56,0,0,1,1.48-.2,3.9,3.9,0,0,1,1,.2,2.94,2.94,0,0,1,1.35,3.1q-.33,1-.65,2.07l-.64,2q-.08.6-.14,1.2c0,.4-.08.8-.13,1.2l-.34.49-.34.49a2.17,2.17,0,0,1-1.56-.32A1.63,1.63,0,0,1,123.5,74a11.72,11.72,0,0,1,1.36-4.1q.51-1.72.21-1.25a15.23,15.23,0,0,1-1.14,1.45q-1.08,1.27-1.5,1.86a5.37,5.37,0,0,0-.55.91,3.3,3.3,0,0,0-.19.59,3.84,3.84,0,0,1-.43.93q-.13.37-.93.53a1.8,1.8,0,0,1-1.3-.14,2.17,2.17,0,0,1-.69-1,3.58,3.58,0,0,1-.14-.91,20,20,0,0,0,.57-2.67q.14-1.1.32-2.68A4.16,4.16,0,0,0,118.56,65.54Z" transform="translate(-9 -59.55)"/><path class="cls-1" d="M134.16,60.56q.38-.21,2,.31a1.69,1.69,0,0,1,.51,1.06q-.88,1.28-1.59,2.4a19.08,19.08,0,0,1,2.06.53l.23.32.23.32-.32.21-.33.2-1.53.21-1.52.2-.21.38-.19.37q-.43,1.08-1,2.7t-.92,2.77a3.1,3.1,0,0,0-.17,1.46.39.39,0,0,0,.4.26,5,5,0,0,0,1.62-.48l1.19-.65a1.35,1.35,0,0,1,1.28,0,.75.75,0,0,1,.2,1.06,14.67,14.67,0,0,1-1.27,1,8,8,0,0,1-1.57.84,2.28,2.28,0,0,1-1.09.23A5.21,5.21,0,0,1,131,76.1q-2.2-.68-2.64-1.8a5.32,5.32,0,0,1-.19-1.38,11.74,11.74,0,0,1,.07-1.39q.25-1,.59-2a10.26,10.26,0,0,1,.94-2,1.9,1.9,0,0,1,.1-.22q.06-.11.25-.53a1.91,1.91,0,0,1-1.46-.38,4.15,4.15,0,0,1-.29-2.15q1.8-.05,3.33-.16A26.63,26.63,0,0,1,134.16,60.56Z" transform="translate(-9 -59.55)"/><path class="cls-1" d="M147.28,73a16.94,16.94,0,0,0-2.66,1.09A10.38,10.38,0,0,0,143,75.22a5.15,5.15,0,0,1-2.35.86,12.4,12.4,0,0,1-2.34,0,4.34,4.34,0,0,1-2.52-2.17,6.22,6.22,0,0,1-.45-2.2,13.11,13.11,0,0,0-.23-2.21,1.06,1.06,0,0,1,.66-.33,1.5,1.5,0,0,0,.73-.32l1.43-1.26a10.81,10.81,0,0,1,1.64-1.16,6.45,6.45,0,0,1,2.41-.7q.94,0,1.79,0A4.53,4.53,0,0,1,146,66.84a2.32,2.32,0,0,1,.5,2.22,12.94,12.94,0,0,1-2.41,1.67,19.41,19.41,0,0,1-2.65,1.17,5.85,5.85,0,0,1-1.67.56,15.2,15.2,0,0,1-1.66.18.76.76,0,0,0,.3.71,1.25,1.25,0,0,0,1.05.12q1.29-.49,2.59-.87t2.59-.87q1.45-.59,1.91,0Q147.8,72.4,147.28,73Zm-8.58-2.67,1.25-.12q1.06-.49,2-1a11.1,11.1,0,0,0,1.78-1.13l-.89-.26a2,2,0,0,0-1.29.26,9.33,9.33,0,0,0-1.72,1.13Q139.23,69.83,138.7,70.38Z" transform="translate(-9 -59.55)"/><path class="cls-1" d="M158.2,64.3a11.63,11.63,0,0,1,2.28.8,4.16,4.16,0,0,1,.86,2.21,15.27,15.27,0,0,1,.21,3.19q-.07,1.55-.21,3.07T161,76.76a14.42,14.42,0,0,1-.93,3.17,2.51,2.51,0,0,1-1.24.83,5.34,5.34,0,0,1-1.34.17,9.67,9.67,0,0,1-3-1.49,10.58,10.58,0,0,0-3-1.53,2.51,2.51,0,0,1-.94-.92,2.71,2.71,0,0,1-.26-.93,3.47,3.47,0,0,1,2.18-1,11.93,11.93,0,0,1,.92,1.44l1.47.75,1.48.73a1.11,1.11,0,0,0,1.57-.1q.13-1.22.29-2.44l.31-2.45q0-2-.08-3.93a35.24,35.24,0,0,0-.42-4Q157.74,64.73,158.2,64.3Zm-.5-3.53a1.55,1.55,0,0,1,1.85-.28,2.08,2.08,0,0,1,1,.86,1.71,1.71,0,0,1,0,1.21,1.76,1.76,0,0,1-1.62.23,2.45,2.45,0,0,1-1.36-1A.94.94,0,0,1,157.71,60.77Z" transform="translate(-9 -59.55)"/><path class="cls-1" d="M161.9,66.82q.1-.46,1.23-.94.64-.14.85,0l.43.32q-.42,4.34.24,5.93t1.53.54a9.24,9.24,0,0,0,1.52-3.35,10.52,10.52,0,0,0,.24-4.68,1.75,1.75,0,0,1,1.66,0,2.52,2.52,0,0,1,1.21,1.14,9.24,9.24,0,0,1,0,1.74,10.64,10.64,0,0,1-.38,2.22,20.14,20.14,0,0,1-1.36,4A3.6,3.6,0,0,1,166.6,76a3.23,3.23,0,0,1-2.92-.23,4.35,4.35,0,0,1-1.52-2.22,10.71,10.71,0,0,1-.48-3.28A24.41,24.41,0,0,1,161.9,66.82Z" transform="translate(-9 -59.55)"/><path class="cls-1" d="M170.33,65.54q-.4-.53.6-1a1,1,0,0,1,1.37,0,2.25,2.25,0,0,1,1,.72,2.7,2.7,0,0,1,.39.86q.22.29,0,1.45c-.16.77-.25,1.26-.27,1.46a21.36,21.36,0,0,1,1.12-1.87,3.88,3.88,0,0,1,1.81-1.64,4.56,4.56,0,0,1,1.48-.2,3.9,3.9,0,0,1,1,.2,2.94,2.94,0,0,1,1.35,3.1q-.33,1-.65,2.07l-.64,2q-.08.6-.14,1.2c0,.4-.08.8-.13,1.2l-.34.49-.34.49a2.17,2.17,0,0,1-1.56-.32,1.63,1.63,0,0,1-1.1-1.72,11.72,11.72,0,0,1,1.36-4.1q.51-1.72.21-1.25a15.21,15.21,0,0,1-1.14,1.45q-1.08,1.27-1.5,1.86a5.37,5.37,0,0,0-.55.91,3.3,3.3,0,0,0-.19.59,3.84,3.84,0,0,1-.43.93q-.13.37-.93.53a1.8,1.8,0,0,1-1.3-.14,2.16,2.16,0,0,1-.69-1,3.58,3.58,0,0,1-.14-.91,20,20,0,0,0,.57-2.67q.14-1.1.31-2.68A4.16,4.16,0,0,0,170.33,65.54Z" transform="translate(-9 -59.55)"/><path class="cls-1" d="M185.93,60.56q.38-.21,2,.31a1.69,1.69,0,0,1,.51,1.06q-.88,1.28-1.59,2.4a19.08,19.08,0,0,1,2.06.53l.23.32.23.32-.31.21-.33.2-1.53.21-1.52.2-.21.38-.19.37q-.43,1.08-1,2.7t-.92,2.77a3.1,3.1,0,0,0-.17,1.46.39.39,0,0,0,.4.26,5,5,0,0,0,1.62-.48l1.19-.65a1.35,1.35,0,0,1,1.28,0,.75.75,0,0,1,.2,1.06,14.67,14.67,0,0,1-1.27,1A8,8,0,0,1,185,76a2.28,2.28,0,0,1-1.09.23,5.21,5.21,0,0,1-1.07-.17q-2.2-.68-2.64-1.8a5.31,5.31,0,0,1-.19-1.38,11.71,11.71,0,0,1,.07-1.39q.25-1,.59-2a10.26,10.26,0,0,1,.94-2,1.9,1.9,0,0,1,.1-.22q.06-.11.25-.53a1.91,1.91,0,0,1-1.46-.38,4.15,4.15,0,0,1-.29-2.15q1.8-.05,3.33-.16A26.63,26.63,0,0,1,185.93,60.56Z" transform="translate(-9 -59.55)"/><path class="cls-1" d="M186.86,70.63a12.69,12.69,0,0,1,.35-3.33,4.21,4.21,0,0,1,2.11-1.84,10.68,10.68,0,0,1,3.1-.77,10.93,10.93,0,0,1,3.33.71,8.84,8.84,0,0,1,2.4,1.42,5.61,5.61,0,0,1,1.37,2.52,5.4,5.4,0,0,1-.05,2.37,13.2,13.2,0,0,1-2.87,2.58,10.11,10.11,0,0,1-3,1.31,4.56,4.56,0,0,1-2.52.39,5.38,5.38,0,0,1-1.91-.75,3.94,3.94,0,0,1-1.66-2.08A23.73,23.73,0,0,1,186.86,70.63Zm2.27-.42a2.39,2.39,0,0,0,.66,2.38,2.88,2.88,0,0,0,2.69.11,17.23,17.23,0,0,0,3.71-2,2.73,2.73,0,0,0,.54-.49,4.41,4.41,0,0,1,.53-.52,2,2,0,0,0-1-1.42,3.86,3.86,0,0,0-4.31-.81A4.13,4.13,0,0,0,189.13,70.2Z" transform="translate(-9 -59.55)"/><path class="cls-1" d="M209,69.25a6.08,6.08,0,0,1,1.74-2.38,7.64,7.64,0,0,1,2.37-1.27,2.93,2.93,0,0,1,2.18.17,8.2,8.2,0,0,1,2.38,1.57,31.5,31.5,0,0,0,2.16,3.29A11.35,11.35,0,0,0,222.13,73a1.19,1.19,0,0,1,1.18.29,1.2,1.2,0,0,1,.08,1.36,3.42,3.42,0,0,1-1.87,0,11.87,11.87,0,0,1-2-.92,17.79,17.79,0,0,1-1.8-1.19,12.51,12.51,0,0,1-3.91,3.39,8.1,8.1,0,0,1-1.39.18,2.54,2.54,0,0,1-1.35-.34,4.67,4.67,0,0,1-1.55-1.19,5.79,5.79,0,0,1-.76-1.29A9.22,9.22,0,0,1,209,69.25Zm3.94-.77a7.24,7.24,0,0,0-1.48,2.38q-.81,1.81.13,2.49a.81.81,0,0,0,1,0q.48-.4,1-1a21.23,21.23,0,0,0,1.88-3,1.38,1.38,0,0,0-.48-1.6A2.83,2.83,0,0,0,212.91,68.49Z" transform="translate(-9 -59.55)"/><path class="cls-1" d="M238.06,60.56q.38-.21,2,.31a1.69,1.69,0,0,1,.51,1.06q-.88,1.28-1.59,2.4a19.08,19.08,0,0,1,2.06.53l.23.32.23.32-.32.21-.33.2-1.53.21-1.52.2-.21.38-.19.37q-.43,1.08-1,2.7t-.92,2.77a3.1,3.1,0,0,0-.17,1.46.39.39,0,0,0,.4.26,5,5,0,0,0,1.62-.48l1.19-.65a1.35,1.35,0,0,1,1.28,0,.75.75,0,0,1,.2,1.06,14.67,14.67,0,0,1-1.27,1,8,8,0,0,1-1.57.84,2.28,2.28,0,0,1-1.09.23,5.21,5.21,0,0,1-1.07-.17q-2.2-.68-2.64-1.8a5.31,5.31,0,0,1-.19-1.38,11.71,11.71,0,0,1,.07-1.39q.25-1,.59-2a10.26,10.26,0,0,1,.94-2,1.9,1.9,0,0,1,.1-.22q.06-.11.25-.53a1.91,1.91,0,0,1-1.46-.38,4.15,4.15,0,0,1-.29-2.15q1.8-.05,3.33-.16A26.63,26.63,0,0,1,238.06,60.56Z" transform="translate(-9 -59.55)"/><path class="cls-1" d="M240.15,65.63q1.92-.56,2.74.48a26,26,0,0,0-.63,3.68q-.18,1.84-.18,3.69l.7,0,.74,0q1.15.75,1,1.47A1.56,1.56,0,0,1,243,76.22a7.81,7.81,0,0,1-1.65-.47,3.67,3.67,0,0,1-2-2.15,32.89,32.89,0,0,1-.19-3.76A7.92,7.92,0,0,1,240.15,65.63Zm.61-5a1.82,1.82,0,0,1,1.65-.2,2.45,2.45,0,0,1,1.23.17,3.1,3.1,0,0,1,.82.57,2.67,2.67,0,0,1,.35,1.94,3.58,3.58,0,0,1-2.54.19,2.77,2.77,0,0,1-1.71-.74A1.87,1.87,0,0,1,240.76,60.59Z" transform="translate(-9 -59.55)"/><path class="cls-1" d="M247.18,76.11a1.2,1.2,0,1,1,1.23-1.2A1.08,1.08,0,0,1,247.18,76.11Z" transform="translate(-9 -59.55)"/><path class="cls-1" d="M253.47,76.11a1.2,1.2,0,1,1,1.23-1.2A1.08,1.08,0,0,1,253.47,76.11Z" transform="translate(-9 -59.55)"/><path class="cls-1" d="M259.77,76.11a1.2,1.2,0,1,1,1.23-1.2A1.08,1.08,0,0,1,259.77,76.11Z" transform="translate(-9 -59.55)"/></svg>