<svg id="Layer_1" data-name="Layer 1" xmlns="http://www.w3.org/2000/svg" viewBox="0 0 234.02 93.51"><defs><style>.cls-1{fill:#fff;}.cls-2{fill:#b22024;}.cls-3{fill:#ed8b22;}</style></defs><path class="cls-1" d="M45,514V480H42.34l4.14-19H65.13a23.56,23.56,0,0,1,17.82,7.71c4.48,4.89,6.76,11.22,6.76,18.47,0,7.92-2.69,14.7-8,19.55A28.35,28.35,0,0,1,62.09,514Zm20-19.32a9.73,9.73,0,0,0,3.79-1.77,6.61,6.61,0,0,0,2-5.26,7.88,7.88,0,0,0-2-5.8A9.05,9.05,0,0,0,65,479.91Z" transform="translate(-17.99 -460)"/><path class="cls-2" d="M80.5,505.28q-7.12,6.49-18.41,6.49H47.91V477.91H44.6l3.31-14.39H65.13q10.22,0,16.51,6.77t6.28,17.07Q87.91,498.51,80.5,505.28ZM70,480.59A9.3,9.3,0,0,0,63,478v18.62a9.94,9.94,0,0,0,6.88-2.36,8.38,8.38,0,0,0,2.64-6.59A9.68,9.68,0,0,0,70,480.59Z" transform="translate(-17.99 -460)"/><polygon class="cls-1" points="72.01 54 72.01 32 68.1 32 72.23 15 71.62 15 75.65 0 93.57 0 89.54 15 90.01 15 90.01 38 93.52 38 89.24 54 72.01 54"/><path class="cls-2" d="M105.83,511.77H91.72V489.69H88.4l3.38-13.19h14v21.73h3.39Zm.14-38.16h-14l3.1-12h14.18Z" transform="translate(-17.99 -460)"/><polygon class="cls-1" points="98.2 54 86.93 15 105.5 15 108.24 27.23 110.62 15 129.06 15 117.17 54 98.2 54"/><path class="cls-2" d="M133.83,511.77h-16.3L107.31,476.5h14.75l4.3,19.19,3.74-19.19h14.53Z" transform="translate(-17.99 -460)"/><path class="cls-1" d="M167.41,513.85c-6.87,0-12.61-1.5-17.08-4.46-5.4-3.58-8.14-8.85-8.14-15.67a19.23,19.23,0,0,1,5.61-14.26c3.78-3.63,8.66-5.46,14.52-5.46s10,2.09,13.81,6.22,4.86,9.08,4.86,15V498h-.17l-3.74,14.58-1.21.35c-2,.24-3.62.52-5,.64S168.31,513.85,167.41,513.85ZM166.5,498c.55,0,1.14.08,1.76.08.43,0,.94-.08,1.52-.08ZM164,487c-.46,0-1-.64-1.82-.64s-1.49.64-2,.64Z" transform="translate(-17.99 -460)"/><path class="cls-2" d="M159.65,497q2,3.67,8.61,3.67a59.11,59.11,0,0,0,10.65-1.62l-3.24,12.28q-2.9.35-4.94.53t-3.32.18q-9.81,0-16.08-4.16Q144,503,144,493.71a17.44,17.44,0,0,1,5.08-13q5.15-4.94,13.26-4.94a17.28,17.28,0,0,1,13.26,5.64,19.51,19.51,0,0,1,5.15,13.76V497Zm5.64-10.11a4.24,4.24,0,0,0-3.1-1.18,4.65,4.65,0,0,0-3.24,1.15,4,4,0,0,0-1.27,3.09h8.82A4.09,4.09,0,0,0,165.29,486.92Z" transform="translate(-17.99 -460)"/><path class="cls-1" d="M183,514V492h-4.2L183,475h16v1.08c0-.33,1.69-.64,2.39-.9a16.41,16.41,0,0,1,5.87-1.18h.44l3.59.2-5.14,19.14-1.79-.6a4.56,4.56,0,0,0-1.4-.19,2.21,2.21,0,0,0-1.14.29,3.1,3.1,0,0,0-1,.9c-.3.42-1,.9-1.13,1.45S199,496.4,199,497v17Z" transform="translate(-17.99 -460)"/><path class="cls-2" d="M204.94,491a6.29,6.29,0,0,0-2-.28,4,4,0,0,0-2,.53,4.88,4.88,0,0,0-1.55,1.41,6.3,6.3,0,0,0-1,2,8.52,8.52,0,0,0-.32,2.33v14.74H184.41v-22H181.1l3.32-13.26H198.1V480a9.21,9.21,0,0,1,4.37-3.1,13.32,13.32,0,0,1,5.29-1.06l1.27.07Z" transform="translate(-17.99 -460)"/><polygon class="cls-1" points="190.01 54 190.01 32 185.84 32 190.06 15 190.01 15 190.01 10.37 208.01 6.03 208.01 15 215.07 15 210.85 32 208.01 32 208.01 54 190.01 54"/><path class="cls-2" d="M227.44,489.69H225v22.08h-14V489.69h-4.8l3.32-13.19h1.48v-4.73l14-3.46v8.18h5.79Z" transform="translate(-17.99 -460)"/><polygon class="cls-1" points="212.01 54 212.01 32 208.55 32 212.68 15 212.07 15 216.1 0 234.02 0 229.99 15 230.01 15 230.01 38 233.97 38 229.69 54 212.01 54"/><path class="cls-2" d="M246.28,511.77H232.17V489.69h-3.31l3.38-13.19h14v21.73h3.39Zm.14-38.16h-14l3.1-12h14.18Z" transform="translate(-17.99 -460)"/><path class="cls-1" d="M45.39,553.51a27.24,27.24,0,0,1-19.29-7.62,25.34,25.34,0,0,1-8.11-19c0-5.94,2.17-11.7,6.45-17.12,5-6.4,11.49-9.64,19.19-9.64q1.4,0,3,.11c.66,0,1.35.12,2.06.22l1.14-1.87,15.31,5.79-8.83,19.7-1.83-1.62a18.66,18.66,0,0,0-4.18-2.69,11,11,0,0,0-4.37-1.23,8.86,8.86,0,0,0-6,2.31,6.84,6.84,0,0,0-2.49,5.35,9.27,9.27,0,0,0,.64,3.49,8,8,0,0,0,4.42,4.45,9,9,0,0,0,3.44.64c2.64,0,5.42-1.44,8.25-4.27l1.78-1.78L64.31,546l-1,.9A25.84,25.84,0,0,1,45.39,553.51Z" transform="translate(-17.99 -460)"/><path class="cls-3" d="M55.62,521.1a20.3,20.3,0,0,0-4.58-3,12.68,12.68,0,0,0-5.15-1.41,10.7,10.7,0,0,0-7.2,2.75,8.63,8.63,0,0,0-3.1,6.7,10.92,10.92,0,0,0,.78,4.16,9.81,9.81,0,0,0,2.15,3.28,9.94,9.94,0,0,0,3.24,2.15,10.69,10.69,0,0,0,4.13.78q4.73,0,9.52-4.8l6.7,13.83a24,24,0,0,1-16.72,6.14,25.38,25.38,0,0,1-18.06-7.13,23.5,23.5,0,0,1-7.55-17.71q0-8.32,6.06-16,7.05-9,17.78-9c.89,0,1.83,0,2.82.11s2,.2,3.11.39l1-1.62,12.13,4.59Z" transform="translate(-17.99 -460)"/><path class="cls-1" d="M84,552v-.29l.71.29H77.07c-3.54,0-6.39-.73-8.71-3.1A11.16,11.16,0,0,1,65,540.42V531H60.92l4.25-16H80v17.88c0,2.93,3.17,3.12,4.05,3.12H84V515h19v21h3.38l-4.28,16Z" transform="translate(-17.99 -460)"/><path class="cls-3" d="M100.7,551.15H87.16v-6.77l-3.53,6.77H77.07a10.09,10.09,0,0,1-7.55-3,10.55,10.55,0,0,1-3-7.69V528.64H63.24l3.31-12.77H80.17v17q0,4.73,3.88,4.73h3.1V515.87H100.7V537.6h3.39Z" transform="translate(-17.99 -460)"/><path class="cls-1" d="M127.86,553.22c-6.87,0-12.61-1.5-17.08-4.46-5.4-3.58-8.14-8.86-8.14-15.68a19.24,19.24,0,0,1,5.61-14.26c3.78-3.63,8.66-5.46,14.52-5.46a18.06,18.06,0,0,1,14.09,6.22c3.74,4,5.14,9.08,5.14,15V539h-.72l-3.74,13.76-1.21-.05c-2,.24-3.62.32-5,.43S128.76,553.22,127.86,553.22ZM126.94,539c.55,0,1.14.08,1.76.08.43,0,.94-.08,1.52-.08Zm-2.48-13c-.46,0-1-.64-1.82-.64s-1.49.64-2,.64Z" transform="translate(-17.99 -460)"/><path class="cls-3" d="M120.1,536.4q2,3.67,8.61,3.67a59.23,59.23,0,0,0,10.65-1.62l-3.24,12.28q-2.89.35-4.94.53t-3.32.18q-9.81,0-16.08-4.16-7.34-4.87-7.34-14.18a17.42,17.42,0,0,1,5.08-13q5.15-4.94,13.26-4.94A17.28,17.28,0,0,1,136,520.81a19.52,19.52,0,0,1,5.15,13.76v1.83Zm5.64-10.11a4.23,4.23,0,0,0-3.1-1.18,4.65,4.65,0,0,0-3.24,1.15,4,4,0,0,0-1.27,3.09h8.82A4.09,4.09,0,0,0,125.74,526.3Z" transform="translate(-17.99 -460)"/><path class="cls-1" d="M165,552V531.68c0-.38-.37-1-2.39-1-.05,0,.39,0-1.61.21V552H142V531h-2.76l4.21-16h25.6c7.52,0,10.94,3.2,10.94,10.68V536h4.62l-4.28,16Z" transform="translate(-17.99 -460)"/><path class="cls-3" d="M178.93,551.15H165.32V531.68q0-2.75-3.81-2.75a18.66,18.66,0,0,0-3,.56v21.66H144.86V529.07h-3.31l3.31-13.19h13.61V522l2.82-6.14h7.76q9.87,0,9.87,9.81V537.6h3.39Z" transform="translate(-17.99 -460)"/><polygon class="cls-1" points="165.01 92 165.01 71 160.12 71 164.34 55 165.01 55 165.01 49.74 183.01 45.4 183.01 55 189.34 55 185.12 71 183.01 71 183.01 92 165.01 92"/><path class="cls-3" d="M201.72,529.07h-2.47v22.08h-14V529.07h-4.8l3.32-13.19h1.48v-4.73l14-3.46v8.18H205Z" transform="translate(-17.99 -460)"/><path class="cls-1" d="M222.57,552.49c-5.46,0-10.1-1.47-13.81-4.84a18.23,18.23,0,0,1-6.09-14.26,20.21,20.21,0,0,1,5.2-14.2,17.94,17.94,0,0,1,13.81-5.77,17,17,0,0,1,7,1.94l.29-.36H244v21h4.17l-4.28,16H226v.56l.35-.56h-2.7C223.34,552,223,552.49,222.57,552.49ZM224,530.16a2.93,2.93,0,0,0-2.13.93,3,3,0,0,0-.94,2.2c0,1,0,2.71,3.85,2.71H226v-4.11a.81.81,0,0,0-.38-1.05A2.46,2.46,0,0,0,224,530.16Z" transform="translate(-17.99 -460)"/><path class="cls-3" d="M242.49,551.15H228.38v-4.94l-3,4.94h-1.69q-8.26.35-13.68-4.59a16.68,16.68,0,0,1-5.5-13.05,18.56,18.56,0,0,1,4.73-13.05,16.17,16.17,0,0,1,12.49-5.22,14.46,14.46,0,0,1,8,2.26l.56-1.62h12.27V537.6h3.39Zm-14.11-19.26a3,3,0,0,0-1.41-2.5,5,5,0,0,0-3-1,4.72,4.72,0,0,0-3.39,1.45,4.54,4.54,0,0,0-1.48,3.35q0,4.37,5.64,4.37h3.6Z" transform="translate(-17.99 -460)"/></svg>